<mxfile host="app.diagrams.net" modified="2021-05-02T21:35:50.215Z" agent="5.0 (Macintosh; Intel Mac OS X 10_15_5) AppleWebKit/605.1.15 (KHTML, like Gecko) Version/13.1.1 Safari/605.1.15" etag="kIK1SdsSi_u_OohX1Yxx" version="14.5.7" type="github">
  <diagram id="IPCBB0qWOUIcppZXgsuR" name="Page-1">
    <mxGraphModel dx="1314" dy="662" grid="1" gridSize="10" guides="1" tooltips="1" connect="1" arrows="1" fold="1" page="1" pageScale="1" pageWidth="827" pageHeight="1169" math="0" shadow="0">
      <root>
        <mxCell id="0" />
        <mxCell id="1" parent="0" />
        <mxCell id="gjU6LSWgoppcO-mj4OVa-59" value="" style="rounded=0;whiteSpace=wrap;html=1;fillColor=none;strokeWidth=2;strokeColor=#FF3333;" vertex="1" parent="1">
          <mxGeometry x="-50" y="680" width="690" height="450" as="geometry" />
        </mxCell>
        <mxCell id="gjU6LSWgoppcO-mj4OVa-3" value="Composition*" style="rounded=0;whiteSpace=wrap;html=1;strokeColor=#b85450;fillColor=#F88181;" vertex="1" parent="1">
          <mxGeometry x="314" y="700" width="100" height="30" as="geometry" />
        </mxCell>
        <mxCell id="gjU6LSWgoppcO-mj4OVa-5" value="Section*" style="rounded=0;whiteSpace=wrap;html=1;fillColor=#fff2cc;strokeColor=#d6b656;" vertex="1" parent="1">
          <mxGeometry x="314" y="770" width="100" height="30" as="geometry" />
        </mxCell>
        <mxCell id="gjU6LSWgoppcO-mj4OVa-6" value="Section" style="rounded=0;whiteSpace=wrap;html=1;fillColor=#fff2cc;strokeColor=#d6b656;" vertex="1" parent="1">
          <mxGeometry x="170" y="830" width="100" height="30" as="geometry" />
        </mxCell>
        <mxCell id="gjU6LSWgoppcO-mj4OVa-7" value="Observation*" style="rounded=0;whiteSpace=wrap;html=1;fillColor=#ffe6cc;strokeColor=#d79b00;" vertex="1" parent="1">
          <mxGeometry x="55" y="910" width="100" height="30" as="geometry" />
        </mxCell>
        <mxCell id="gjU6LSWgoppcO-mj4OVa-8" value="Evaluation*" style="rounded=0;whiteSpace=wrap;html=1;fillColor=#ffe6cc;strokeColor=#d79b00;" vertex="1" parent="1">
          <mxGeometry x="314" y="910" width="100" height="30" as="geometry" />
        </mxCell>
        <mxCell id="gjU6LSWgoppcO-mj4OVa-9" value="Instruction*" style="rounded=0;whiteSpace=wrap;html=1;fillColor=#ffe6cc;strokeColor=#d79b00;" vertex="1" parent="1">
          <mxGeometry x="520" y="910" width="100" height="30" as="geometry" />
        </mxCell>
        <mxCell id="gjU6LSWgoppcO-mj4OVa-10" value="Section" style="rounded=0;whiteSpace=wrap;html=1;fillColor=#fff2cc;strokeColor=#d6b656;" vertex="1" parent="1">
          <mxGeometry x="450" y="830" width="100" height="30" as="geometry" />
        </mxCell>
        <mxCell id="gjU6LSWgoppcO-mj4OVa-11" value="History" style="rounded=0;whiteSpace=wrap;html=1;strokeColor=#b85450;fillColor=#f8cecc;" vertex="1" parent="1">
          <mxGeometry x="30" y="970" width="50" height="30" as="geometry" />
        </mxCell>
        <mxCell id="gjU6LSWgoppcO-mj4OVa-12" value="History" style="rounded=0;whiteSpace=wrap;html=1;fillColor=#f8cecc;strokeColor=#b85450;" vertex="1" parent="1">
          <mxGeometry x="300" y="970" width="50" height="30" as="geometry" />
        </mxCell>
        <mxCell id="gjU6LSWgoppcO-mj4OVa-13" value="List" style="rounded=0;whiteSpace=wrap;html=1;fillColor=#f8cecc;strokeColor=#b85450;" vertex="1" parent="1">
          <mxGeometry x="380" y="970" width="50" height="30" as="geometry" />
        </mxCell>
        <mxCell id="gjU6LSWgoppcO-mj4OVa-14" value="Single" style="rounded=0;whiteSpace=wrap;html=1;fillColor=#f8cecc;strokeColor=#b85450;" vertex="1" parent="1">
          <mxGeometry x="270" y="1020" width="50" height="30" as="geometry" />
        </mxCell>
        <mxCell id="gjU6LSWgoppcO-mj4OVa-15" value="Single" style="rounded=0;whiteSpace=wrap;html=1;fillColor=#f8cecc;strokeColor=#b85450;" vertex="1" parent="1">
          <mxGeometry x="339" y="1020" width="50" height="30" as="geometry" />
        </mxCell>
        <mxCell id="gjU6LSWgoppcO-mj4OVa-16" style="edgeStyle=orthogonalEdgeStyle;rounded=0;orthogonalLoop=1;jettySize=auto;html=1;exitX=0.5;exitY=1;exitDx=0;exitDy=0;fillColor=#f8cecc;strokeColor=#b85450;" edge="1" parent="1" source="gjU6LSWgoppcO-mj4OVa-14" target="gjU6LSWgoppcO-mj4OVa-14">
          <mxGeometry relative="1" as="geometry" />
        </mxCell>
        <mxCell id="gjU6LSWgoppcO-mj4OVa-17" value="Element" style="rounded=0;whiteSpace=wrap;html=1;fillColor=#f8cecc;strokeColor=#b85450;" vertex="1" parent="1">
          <mxGeometry x="270" y="1080" width="50" height="30" as="geometry" />
        </mxCell>
        <mxCell id="gjU6LSWgoppcO-mj4OVa-18" value="Element" style="rounded=0;whiteSpace=wrap;html=1;fillColor=#f8cecc;strokeColor=#b85450;" vertex="1" parent="1">
          <mxGeometry x="339" y="1080" width="50" height="30" as="geometry" />
        </mxCell>
        <mxCell id="gjU6LSWgoppcO-mj4OVa-19" value="Element" style="rounded=0;whiteSpace=wrap;html=1;fillColor=#f8cecc;strokeColor=#b85450;" vertex="1" parent="1">
          <mxGeometry x="410" y="1080" width="50" height="30" as="geometry" />
        </mxCell>
        <mxCell id="gjU6LSWgoppcO-mj4OVa-20" value="Element" style="rounded=0;whiteSpace=wrap;html=1;fillColor=#f8cecc;strokeColor=#b85450;" vertex="1" parent="1">
          <mxGeometry x="545" y="1080" width="50" height="30" as="geometry" />
        </mxCell>
        <mxCell id="gjU6LSWgoppcO-mj4OVa-21" value="List" style="rounded=0;whiteSpace=wrap;html=1;fillColor=#f8cecc;strokeColor=#b85450;" vertex="1" parent="1">
          <mxGeometry x="545" y="1030" width="50" height="30" as="geometry" />
        </mxCell>
        <mxCell id="gjU6LSWgoppcO-mj4OVa-22" value="Activity" style="rounded=0;whiteSpace=wrap;html=1;fillColor=#f8cecc;strokeColor=#b85450;" vertex="1" parent="1">
          <mxGeometry x="545" y="980" width="50" height="30" as="geometry" />
        </mxCell>
        <mxCell id="gjU6LSWgoppcO-mj4OVa-23" value="Table*" style="rounded=0;whiteSpace=wrap;html=1;fillColor=#f8cecc;strokeColor=#b85450;" vertex="1" parent="1">
          <mxGeometry x="170" y="970" width="50" height="30" as="geometry" />
        </mxCell>
        <mxCell id="gjU6LSWgoppcO-mj4OVa-24" value="List*" style="rounded=0;whiteSpace=wrap;html=1;fillColor=#f8cecc;strokeColor=#b85450;" vertex="1" parent="1">
          <mxGeometry x="-20" y="1020" width="50" height="30" as="geometry" />
        </mxCell>
        <mxCell id="gjU6LSWgoppcO-mj4OVa-25" value="List*" style="rounded=0;whiteSpace=wrap;html=1;fillColor=#f8cecc;strokeColor=#b85450;" vertex="1" parent="1">
          <mxGeometry x="80" y="1020" width="50" height="30" as="geometry" />
        </mxCell>
        <mxCell id="gjU6LSWgoppcO-mj4OVa-26" value="Element" style="rounded=0;whiteSpace=wrap;html=1;fillColor=#f8cecc;strokeColor=#b85450;" vertex="1" parent="1">
          <mxGeometry x="-20" y="1080" width="50" height="30" as="geometry" />
        </mxCell>
        <mxCell id="gjU6LSWgoppcO-mj4OVa-27" value="Element" style="rounded=0;whiteSpace=wrap;html=1;fillColor=#f8cecc;strokeColor=#b85450;" vertex="1" parent="1">
          <mxGeometry x="80" y="1080" width="50" height="30" as="geometry" />
        </mxCell>
        <mxCell id="gjU6LSWgoppcO-mj4OVa-29" value="Cluster" style="rounded=0;whiteSpace=wrap;html=1;fillColor=#f8cecc;strokeColor=#b85450;" vertex="1" parent="1">
          <mxGeometry x="170" y="1020" width="50" height="30" as="geometry" />
        </mxCell>
        <mxCell id="gjU6LSWgoppcO-mj4OVa-30" value="Element" style="rounded=0;whiteSpace=wrap;html=1;fillColor=#f8cecc;strokeColor=#b85450;" vertex="1" parent="1">
          <mxGeometry x="170" y="1080" width="50" height="30" as="geometry" />
        </mxCell>
        <mxCell id="gjU6LSWgoppcO-mj4OVa-32" value="" style="endArrow=none;html=1;entryX=0.5;entryY=1;entryDx=0;entryDy=0;exitX=0.5;exitY=0;exitDx=0;exitDy=0;" edge="1" parent="1" source="gjU6LSWgoppcO-mj4OVa-5" target="gjU6LSWgoppcO-mj4OVa-3">
          <mxGeometry width="50" height="50" relative="1" as="geometry">
            <mxPoint x="250" y="970" as="sourcePoint" />
            <mxPoint x="300" y="920" as="targetPoint" />
            <Array as="points" />
          </mxGeometry>
        </mxCell>
        <mxCell id="gjU6LSWgoppcO-mj4OVa-33" value="" style="endArrow=none;html=1;entryX=0.5;entryY=1;entryDx=0;entryDy=0;exitX=0.5;exitY=0;exitDx=0;exitDy=0;" edge="1" parent="1" source="gjU6LSWgoppcO-mj4OVa-6" target="gjU6LSWgoppcO-mj4OVa-5">
          <mxGeometry width="50" height="50" relative="1" as="geometry">
            <mxPoint x="250" y="970" as="sourcePoint" />
            <mxPoint x="300" y="920" as="targetPoint" />
          </mxGeometry>
        </mxCell>
        <mxCell id="gjU6LSWgoppcO-mj4OVa-35" value="" style="endArrow=none;html=1;entryX=0.5;entryY=1;entryDx=0;entryDy=0;exitX=0.5;exitY=0;exitDx=0;exitDy=0;" edge="1" parent="1" source="gjU6LSWgoppcO-mj4OVa-10" target="gjU6LSWgoppcO-mj4OVa-5">
          <mxGeometry width="50" height="50" relative="1" as="geometry">
            <mxPoint x="250" y="970" as="sourcePoint" />
            <mxPoint x="300" y="920" as="targetPoint" />
          </mxGeometry>
        </mxCell>
        <mxCell id="gjU6LSWgoppcO-mj4OVa-36" value="" style="endArrow=none;html=1;entryX=0.5;entryY=1;entryDx=0;entryDy=0;exitX=0.5;exitY=0;exitDx=0;exitDy=0;" edge="1" parent="1" source="gjU6LSWgoppcO-mj4OVa-7" target="gjU6LSWgoppcO-mj4OVa-6">
          <mxGeometry width="50" height="50" relative="1" as="geometry">
            <mxPoint x="250" y="970" as="sourcePoint" />
            <mxPoint x="300" y="920" as="targetPoint" />
          </mxGeometry>
        </mxCell>
        <mxCell id="gjU6LSWgoppcO-mj4OVa-37" value="" style="endArrow=none;html=1;exitX=0.5;exitY=0;exitDx=0;exitDy=0;entryX=0.5;entryY=1;entryDx=0;entryDy=0;" edge="1" parent="1" source="gjU6LSWgoppcO-mj4OVa-11" target="gjU6LSWgoppcO-mj4OVa-7">
          <mxGeometry width="50" height="50" relative="1" as="geometry">
            <mxPoint x="50" y="970" as="sourcePoint" />
            <mxPoint x="100" y="920" as="targetPoint" />
          </mxGeometry>
        </mxCell>
        <mxCell id="gjU6LSWgoppcO-mj4OVa-38" value="" style="endArrow=none;html=1;entryX=0.5;entryY=1;entryDx=0;entryDy=0;exitX=0.5;exitY=0;exitDx=0;exitDy=0;" edge="1" parent="1" source="gjU6LSWgoppcO-mj4OVa-23" target="gjU6LSWgoppcO-mj4OVa-7">
          <mxGeometry width="50" height="50" relative="1" as="geometry">
            <mxPoint x="50" y="970" as="sourcePoint" />
            <mxPoint x="100" y="920" as="targetPoint" />
          </mxGeometry>
        </mxCell>
        <mxCell id="gjU6LSWgoppcO-mj4OVa-39" value="" style="endArrow=none;html=1;entryX=0.5;entryY=1;entryDx=0;entryDy=0;exitX=0.5;exitY=0;exitDx=0;exitDy=0;" edge="1" parent="1" source="gjU6LSWgoppcO-mj4OVa-24" target="gjU6LSWgoppcO-mj4OVa-11">
          <mxGeometry width="50" height="50" relative="1" as="geometry">
            <mxPoint x="50" y="970" as="sourcePoint" />
            <mxPoint x="100" y="920" as="targetPoint" />
          </mxGeometry>
        </mxCell>
        <mxCell id="gjU6LSWgoppcO-mj4OVa-40" value="" style="endArrow=none;html=1;exitX=0.5;exitY=0;exitDx=0;exitDy=0;entryX=0.5;entryY=1;entryDx=0;entryDy=0;" edge="1" parent="1" source="gjU6LSWgoppcO-mj4OVa-26" target="gjU6LSWgoppcO-mj4OVa-24">
          <mxGeometry width="50" height="50" relative="1" as="geometry">
            <mxPoint x="50" y="970" as="sourcePoint" />
            <mxPoint x="100" y="920" as="targetPoint" />
          </mxGeometry>
        </mxCell>
        <mxCell id="gjU6LSWgoppcO-mj4OVa-41" value="" style="endArrow=none;html=1;exitX=0.5;exitY=0;exitDx=0;exitDy=0;entryX=0.5;entryY=1;entryDx=0;entryDy=0;" edge="1" parent="1" source="gjU6LSWgoppcO-mj4OVa-27" target="gjU6LSWgoppcO-mj4OVa-25">
          <mxGeometry width="50" height="50" relative="1" as="geometry">
            <mxPoint x="50" y="970" as="sourcePoint" />
            <mxPoint x="100" y="920" as="targetPoint" />
          </mxGeometry>
        </mxCell>
        <mxCell id="gjU6LSWgoppcO-mj4OVa-42" value="" style="endArrow=none;html=1;entryX=0.5;entryY=1;entryDx=0;entryDy=0;exitX=0.5;exitY=0;exitDx=0;exitDy=0;" edge="1" parent="1" source="gjU6LSWgoppcO-mj4OVa-25" target="gjU6LSWgoppcO-mj4OVa-11">
          <mxGeometry width="50" height="50" relative="1" as="geometry">
            <mxPoint x="50" y="970" as="sourcePoint" />
            <mxPoint x="100" y="920" as="targetPoint" />
          </mxGeometry>
        </mxCell>
        <mxCell id="gjU6LSWgoppcO-mj4OVa-43" value="" style="endArrow=none;html=1;entryX=0.5;entryY=1;entryDx=0;entryDy=0;exitX=0.5;exitY=0;exitDx=0;exitDy=0;" edge="1" parent="1" source="gjU6LSWgoppcO-mj4OVa-29" target="gjU6LSWgoppcO-mj4OVa-23">
          <mxGeometry width="50" height="50" relative="1" as="geometry">
            <mxPoint x="50" y="970" as="sourcePoint" />
            <mxPoint x="100" y="920" as="targetPoint" />
          </mxGeometry>
        </mxCell>
        <mxCell id="gjU6LSWgoppcO-mj4OVa-44" value="" style="endArrow=none;html=1;entryX=0.5;entryY=1;entryDx=0;entryDy=0;exitX=0.5;exitY=0;exitDx=0;exitDy=0;" edge="1" parent="1" source="gjU6LSWgoppcO-mj4OVa-30" target="gjU6LSWgoppcO-mj4OVa-29">
          <mxGeometry width="50" height="50" relative="1" as="geometry">
            <mxPoint x="50" y="970" as="sourcePoint" />
            <mxPoint x="100" y="920" as="targetPoint" />
          </mxGeometry>
        </mxCell>
        <mxCell id="gjU6LSWgoppcO-mj4OVa-45" value="" style="endArrow=none;html=1;entryX=0.5;entryY=1;entryDx=0;entryDy=0;exitX=0.5;exitY=0;exitDx=0;exitDy=0;" edge="1" parent="1" source="gjU6LSWgoppcO-mj4OVa-8" target="gjU6LSWgoppcO-mj4OVa-6">
          <mxGeometry width="50" height="50" relative="1" as="geometry">
            <mxPoint x="410" y="970" as="sourcePoint" />
            <mxPoint x="460" y="920" as="targetPoint" />
          </mxGeometry>
        </mxCell>
        <mxCell id="gjU6LSWgoppcO-mj4OVa-46" value="" style="endArrow=none;html=1;entryX=0.5;entryY=1;entryDx=0;entryDy=0;exitX=0.5;exitY=0;exitDx=0;exitDy=0;" edge="1" parent="1" source="gjU6LSWgoppcO-mj4OVa-12" target="gjU6LSWgoppcO-mj4OVa-8">
          <mxGeometry width="50" height="50" relative="1" as="geometry">
            <mxPoint x="410" y="970" as="sourcePoint" />
            <mxPoint x="460" y="920" as="targetPoint" />
          </mxGeometry>
        </mxCell>
        <mxCell id="gjU6LSWgoppcO-mj4OVa-47" value="" style="endArrow=none;html=1;entryX=0.5;entryY=1;entryDx=0;entryDy=0;exitX=0.5;exitY=0;exitDx=0;exitDy=0;" edge="1" parent="1" source="gjU6LSWgoppcO-mj4OVa-13" target="gjU6LSWgoppcO-mj4OVa-8">
          <mxGeometry width="50" height="50" relative="1" as="geometry">
            <mxPoint x="410" y="970" as="sourcePoint" />
            <mxPoint x="460" y="920" as="targetPoint" />
          </mxGeometry>
        </mxCell>
        <mxCell id="gjU6LSWgoppcO-mj4OVa-48" value="" style="endArrow=none;html=1;entryX=0.5;entryY=1;entryDx=0;entryDy=0;exitX=0.5;exitY=0;exitDx=0;exitDy=0;" edge="1" parent="1" source="gjU6LSWgoppcO-mj4OVa-14" target="gjU6LSWgoppcO-mj4OVa-12">
          <mxGeometry width="50" height="50" relative="1" as="geometry">
            <mxPoint x="410" y="970" as="sourcePoint" />
            <mxPoint x="460" y="920" as="targetPoint" />
          </mxGeometry>
        </mxCell>
        <mxCell id="gjU6LSWgoppcO-mj4OVa-49" value="" style="endArrow=none;html=1;entryX=0.5;entryY=1;entryDx=0;entryDy=0;exitX=0.5;exitY=0;exitDx=0;exitDy=0;" edge="1" parent="1" source="gjU6LSWgoppcO-mj4OVa-15" target="gjU6LSWgoppcO-mj4OVa-12">
          <mxGeometry width="50" height="50" relative="1" as="geometry">
            <mxPoint x="410" y="970" as="sourcePoint" />
            <mxPoint x="460" y="920" as="targetPoint" />
          </mxGeometry>
        </mxCell>
        <mxCell id="gjU6LSWgoppcO-mj4OVa-50" value="" style="endArrow=none;html=1;entryX=0.5;entryY=1;entryDx=0;entryDy=0;exitX=0.5;exitY=0;exitDx=0;exitDy=0;" edge="1" parent="1" source="gjU6LSWgoppcO-mj4OVa-17" target="gjU6LSWgoppcO-mj4OVa-14">
          <mxGeometry width="50" height="50" relative="1" as="geometry">
            <mxPoint x="410" y="970" as="sourcePoint" />
            <mxPoint x="460" y="920" as="targetPoint" />
          </mxGeometry>
        </mxCell>
        <mxCell id="gjU6LSWgoppcO-mj4OVa-51" value="" style="endArrow=none;html=1;entryX=0.5;entryY=1;entryDx=0;entryDy=0;exitX=0.5;exitY=0;exitDx=0;exitDy=0;" edge="1" parent="1" source="gjU6LSWgoppcO-mj4OVa-18" target="gjU6LSWgoppcO-mj4OVa-15">
          <mxGeometry width="50" height="50" relative="1" as="geometry">
            <mxPoint x="410" y="970" as="sourcePoint" />
            <mxPoint x="460" y="920" as="targetPoint" />
          </mxGeometry>
        </mxCell>
        <mxCell id="gjU6LSWgoppcO-mj4OVa-53" value="" style="endArrow=none;html=1;entryX=0.5;entryY=1;entryDx=0;entryDy=0;exitX=0.5;exitY=0;exitDx=0;exitDy=0;" edge="1" parent="1" source="gjU6LSWgoppcO-mj4OVa-19" target="gjU6LSWgoppcO-mj4OVa-13">
          <mxGeometry width="50" height="50" relative="1" as="geometry">
            <mxPoint x="410" y="970" as="sourcePoint" />
            <mxPoint x="460" y="920" as="targetPoint" />
          </mxGeometry>
        </mxCell>
        <mxCell id="gjU6LSWgoppcO-mj4OVa-54" value="" style="endArrow=none;html=1;entryX=0.5;entryY=1;entryDx=0;entryDy=0;exitX=0.5;exitY=0;exitDx=0;exitDy=0;" edge="1" parent="1" source="gjU6LSWgoppcO-mj4OVa-9" target="gjU6LSWgoppcO-mj4OVa-10">
          <mxGeometry width="50" height="50" relative="1" as="geometry">
            <mxPoint x="410" y="970" as="sourcePoint" />
            <mxPoint x="460" y="920" as="targetPoint" />
          </mxGeometry>
        </mxCell>
        <mxCell id="gjU6LSWgoppcO-mj4OVa-55" value="" style="endArrow=none;html=1;entryX=0.5;entryY=1;entryDx=0;entryDy=0;exitX=0.5;exitY=0;exitDx=0;exitDy=0;" edge="1" parent="1" source="gjU6LSWgoppcO-mj4OVa-22" target="gjU6LSWgoppcO-mj4OVa-9">
          <mxGeometry width="50" height="50" relative="1" as="geometry">
            <mxPoint x="410" y="970" as="sourcePoint" />
            <mxPoint x="460" y="920" as="targetPoint" />
          </mxGeometry>
        </mxCell>
        <mxCell id="gjU6LSWgoppcO-mj4OVa-57" value="" style="endArrow=none;html=1;entryX=0.5;entryY=1;entryDx=0;entryDy=0;exitX=0.5;exitY=0;exitDx=0;exitDy=0;" edge="1" parent="1" source="gjU6LSWgoppcO-mj4OVa-21" target="gjU6LSWgoppcO-mj4OVa-22">
          <mxGeometry width="50" height="50" relative="1" as="geometry">
            <mxPoint x="410" y="970" as="sourcePoint" />
            <mxPoint x="460" y="920" as="targetPoint" />
          </mxGeometry>
        </mxCell>
        <mxCell id="gjU6LSWgoppcO-mj4OVa-58" value="" style="endArrow=none;html=1;entryX=0.5;entryY=1;entryDx=0;entryDy=0;exitX=0.5;exitY=0;exitDx=0;exitDy=0;" edge="1" parent="1" source="gjU6LSWgoppcO-mj4OVa-20" target="gjU6LSWgoppcO-mj4OVa-21">
          <mxGeometry width="50" height="50" relative="1" as="geometry">
            <mxPoint x="410" y="970" as="sourcePoint" />
            <mxPoint x="460" y="920" as="targetPoint" />
          </mxGeometry>
        </mxCell>
        <mxCell id="gjU6LSWgoppcO-mj4OVa-60" value="&lt;font style=&quot;font-size: 9px&quot;&gt;&lt;b&gt;Extent of Template&amp;nbsp;&lt;/b&gt;&lt;/font&gt;" style="rounded=0;whiteSpace=wrap;html=1;strokeColor=#FF3333;strokeWidth=2;fillColor=none;glass=1;" vertex="1" parent="1">
          <mxGeometry x="-30" y="720" width="100" height="30" as="geometry" />
        </mxCell>
        <mxCell id="gjU6LSWgoppcO-mj4OVa-61" value="&lt;font style=&quot;font-size: 9px&quot;&gt;&lt;b&gt;Extent of Archetype&lt;/b&gt;&lt;/font&gt;" style="rounded=0;whiteSpace=wrap;html=1;dashed=1;strokeWidth=3;fillColor=none;strokeColor=#FF9933;" vertex="1" parent="1">
          <mxGeometry x="-30" y="770" width="100" height="30" as="geometry" />
        </mxCell>
        <mxCell id="gjU6LSWgoppcO-mj4OVa-62" value="* = root node" style="text;html=1;align=center;verticalAlign=middle;resizable=0;points=[];autosize=1;fontStyle=1" vertex="1" parent="1">
          <mxGeometry x="-35" y="690" width="90" height="20" as="geometry" />
        </mxCell>
        <mxCell id="gjU6LSWgoppcO-mj4OVa-63" value="" style="rounded=0;whiteSpace=wrap;html=1;dashed=1;strokeColor=#FF9933;strokeWidth=3;fillColor=none;" vertex="1" parent="1">
          <mxGeometry x="-30" y="1010" width="80" height="110" as="geometry" />
        </mxCell>
        <mxCell id="gjU6LSWgoppcO-mj4OVa-64" value="" style="rounded=0;whiteSpace=wrap;html=1;dashed=1;strokeColor=#FF9933;strokeWidth=3;fillColor=none;" vertex="1" parent="1">
          <mxGeometry x="60" y="1010" width="74" height="110" as="geometry" />
        </mxCell>
        <mxCell id="gjU6LSWgoppcO-mj4OVa-65" value="" style="rounded=0;whiteSpace=wrap;html=1;dashed=1;strokeColor=#FF9933;strokeWidth=3;fillColor=none;" vertex="1" parent="1">
          <mxGeometry x="-30" y="900" width="190" height="110" as="geometry" />
        </mxCell>
        <mxCell id="gjU6LSWgoppcO-mj4OVa-66" style="edgeStyle=orthogonalEdgeStyle;rounded=0;orthogonalLoop=1;jettySize=auto;html=1;exitX=0.5;exitY=1;exitDx=0;exitDy=0;" edge="1" parent="1" source="gjU6LSWgoppcO-mj4OVa-64" target="gjU6LSWgoppcO-mj4OVa-64">
          <mxGeometry relative="1" as="geometry" />
        </mxCell>
        <mxCell id="gjU6LSWgoppcO-mj4OVa-68" value="" style="rounded=0;whiteSpace=wrap;html=1;dashed=1;strokeColor=#FF9933;strokeWidth=3;fillColor=none;" vertex="1" parent="1">
          <mxGeometry x="164" y="900" width="66" height="220" as="geometry" />
        </mxCell>
        <mxCell id="gjU6LSWgoppcO-mj4OVa-69" value="" style="rounded=0;whiteSpace=wrap;html=1;dashed=1;strokeColor=#FF9933;strokeWidth=3;fillColor=none;" vertex="1" parent="1">
          <mxGeometry x="240" y="900" width="230" height="220" as="geometry" />
        </mxCell>
        <mxCell id="gjU6LSWgoppcO-mj4OVa-70" value="" style="rounded=0;whiteSpace=wrap;html=1;dashed=1;strokeColor=#FF9933;strokeWidth=3;fillColor=none;" vertex="1" parent="1">
          <mxGeometry x="480" y="900" width="150" height="220" as="geometry" />
        </mxCell>
        <mxCell id="gjU6LSWgoppcO-mj4OVa-71" value="" style="rounded=0;whiteSpace=wrap;html=1;dashed=1;strokeColor=#FF9933;strokeWidth=3;fillColor=none;" vertex="1" parent="1">
          <mxGeometry x="160" y="752" width="400" height="135" as="geometry" />
        </mxCell>
        <mxCell id="gjU6LSWgoppcO-mj4OVa-72" value="" style="rounded=0;whiteSpace=wrap;html=1;dashed=1;strokeColor=#FF9933;strokeWidth=3;fillColor=none;" vertex="1" parent="1">
          <mxGeometry x="300" y="690" width="124" height="50" as="geometry" />
        </mxCell>
      </root>
    </mxGraphModel>
  </diagram>
</mxfile>
